<?xml version="1.0" encoding="UTF-8" standalone="no" ?>
<!DOCTYPE svg PUBLIC "-//W3C//DTD SVG 1.1//EN" "http://www.w3.org/Graphics/SVG/1.1/DTD/svg11.dtd">
<svg xmlns="http://www.w3.org/2000/svg" xmlns:xlink="http://www.w3.org/1999/xlink" version="1.1" width="640" height="640" viewBox="0 0 640 640" xml:space="preserve">
<desc>Created with Fabric.js 4.6.0</desc>
<defs>
</defs>
<g transform="matrix(0.38 0 0 0.38 320 319.87)" id="StCHOYNMK2HwjOPspsWiG"  >
<path style="stroke: none; stroke-width: 1; stroke-dasharray: none; stroke-linecap: butt; stroke-dashoffset: 0; stroke-linejoin: miter; stroke-miterlimit: 4; fill: rgb(219,10,19); fill-rule: nonzero; opacity: 1;" vector-effect="non-scaling-stroke"  transform=" translate(0, 0)" d="M 3 200.21429 z M -360 315.21429 L -360 155.21429 C -360 99.88096000000002 -340.5 52.714290000000005 -301.5 13.714290000000005 C -262.5 -25.285709999999995 -215.33333 -44.785709999999995 -160 -44.785709999999995 L 269 -44.785709999999995 C 294.33333 -44.785709999999995 315.83333 -36.11904 333.5 -18.785709999999995 C 351.16667 -1.4523799999999945 360 19.88096000000001 360 45.214290000000005 C 360 65.88096 353.66667 84.38096000000002 341 100.71429 C 328.33333 117.04762000000001 312.33333 127.88096 293 133.21429 L 200 160.21429 L 200 344.21429 C 200 354.82029 197.64767 364.41629 192.943 373.00229 C 188.23833000000002 381.58829000000003 181.924 388.65896000000004 174 394.21429 C 165.90133 399.71429 157.04333 403.08929 147.426 404.33929 C 137.80866999999998 405.58929 127.99999999999999 404.21429 117.99999999999999 400.21429 L -98.00000000000001 315.21429 z M 140 175.21429 L -105 175.21429 C -114.33333 175.21429 -122 178.21429 -128 184.21429 C -134 190.21429 -137.66667 196.88096000000002 -139 204.21429 C -140.33333 211.54762 -139.106 219.03262 -135.318 226.66929 C -131.53 234.30528999999999 -125.09067000000002 239.82029 -116.00000000000001 243.21429 L 140 344.21429 z M -300 255.21429 L -187 255.21429 C -191 248.54762 -194.16667 241.38096000000002 -196.5 233.71429 C -198.83333 226.04762 -200 218.21429 -200 210.21429 C -200 184.21429 -190.66667 161.88096000000002 -172 143.21429 C -153.33333 124.54762000000001 -131 115.21429 -105 115.21429 L 133 115.21429 L 278 75.21429 C 287.33333 72.54762000000001 293.66667 68.21429 297 62.214290000000005 C 300.33333 56.214290000000005 301.33333 49.54762000000001 300 42.214290000000005 C 298.66667 34.88096 295.33333 28.547620000000006 290 23.214290000000005 C 284.66667 17.880960000000005 277.66667 15.214290000000005 269 15.214290000000005 L -160 15.214290000000005 C -198.88867 15.214290000000005 -231.94432999999998 28.825290000000006 -259.16700000000003 56.047290000000004 C -286.389 83.26996 -300 116.32562 -300 155.21429 z M -80 -84.78571 C -124 -84.78571 -161.66667 -100.45237999999999 -193 -131.78571 C -224.33333 -163.11903999999998 -240 -200.78571 -240 -244.78571 C -240 -288.78571 -224.33333 -326.45238 -193 -357.78571 C -161.66667 -389.11904 -124 -404.78571 -80 -404.78571 C -36 -404.78571 1.6666699999999963 -389.11904 33 -357.78571 C 64.33333 -326.45238 80 -288.78571 80 -244.78571 C 80 -200.78571 64.33333 -163.11903999999998 33 -131.78571 C 1.6666699999999999 -100.45237999999999 -36 -84.78571 -80 -84.78571 z M -80 -144.78571 C -52 -144.78571 -28.333329999999997 -154.45238 -9 -173.78571 C 10.33333 -193.11903999999998 20 -216.78571 20 -244.78571 C 20 -272.78571 10.33333 -296.45238 -9 -315.78571 C -28.33333 -335.11904 -52 -344.78571 -80 -344.78571 C -108 -344.78571 -131.66667 -335.11904 -151 -315.78571 C -170.33333 -296.45238 -180 -272.78571 -180 -244.78571 C -180 -216.78571 -170.33333 -193.11903999999998 -151 -173.78571 C -131.66667 -154.45238 -108 -144.78571 -80 -144.78571 z M 3 200.21429 z M -80 -244.78571 z" stroke-linecap="round" />
</g>
<g transform="matrix(0.76 0 0 0.76 288.99 228.44)" id="6Gg82rci1SDLnRrdi1ZH8"  >
<path style="stroke: rgb(160,3,141); stroke-width: 0; stroke-dasharray: none; stroke-linecap: butt; stroke-dashoffset: 0; stroke-linejoin: miter; stroke-miterlimit: 4; fill: rgb(219,10,19); fill-rule: nonzero; opacity: 1;" vector-effect="non-scaling-stroke"  transform=" translate(0, 0)" d="M 0 -56.51376 C 31.19559 -56.51376 56.51376 -31.1956 56.51376 0 C 56.51376 31.19559 31.1956 56.51376 0 56.51376 C -31.19559 56.51376 -56.51376 31.1956 -56.51376 0 C -56.51376 -31.19559 -31.1956 -56.51376 0 -56.51376 z" stroke-linecap="round" />
</g>
<g transform="matrix(2.07 0 0 0.51 332.11 340.75)" id="YmP7cF2oLGCSjebdR38ds"  >
<path style="stroke: rgb(101,228,247); stroke-width: 0; stroke-dasharray: none; stroke-linecap: butt; stroke-dashoffset: 0; stroke-linejoin: miter; stroke-miterlimit: 4; fill: rgb(219,10,19); fill-rule: nonzero; opacity: 1;" vector-effect="non-scaling-stroke"  transform=" translate(0, 0)" d="M -51.37615 -51.37615 L 51.37615 -51.37615 L 51.37615 51.37615 L -51.37615 51.37615 z" stroke-linecap="round" />
</g>
<g transform="matrix(2.27 0 0 1.22 287.34 382.83)" id="kifkzRFf17IyqVC-68yOb"  >
<path style="stroke: rgb(21,3,184); stroke-width: 0; stroke-dasharray: none; stroke-linecap: butt; stroke-dashoffset: 0; stroke-linejoin: miter; stroke-miterlimit: 4; fill: rgb(219,10,19); fill-rule: nonzero; opacity: 1;" vector-effect="non-scaling-stroke"  transform=" translate(0, 0)" d="M -39.26605 -25.65894 C -39.26605 -33.17394 -35.98183 -39.26605 -31.93053 -39.26605 L 31.93053 -39.26605 L 31.93053 -39.26605 C 35.98183 -39.26605 39.26605 -33.17394 39.26605 -25.65894 L 39.26605 25.658929999999998 L 39.26605 25.658929999999998 C 39.26605 33.17393 35.98183 39.26604 31.93053 39.26604 L -31.93053 39.26604 L -31.93053 39.26604 C -35.98183 39.26604 -39.26605 33.17393 -39.26605 25.658929999999998 z" stroke-linecap="round" />
</g>
<g transform="matrix(1 0 0 1 347.89 410.06)" id="saI543sosSwt3zeWLXlBe"  >
<path style="stroke: rgb(80,179,36); stroke-width: 0; stroke-dasharray: none; stroke-linecap: butt; stroke-dashoffset: 0; stroke-linejoin: miter; stroke-miterlimit: 4; fill: rgb(219,10,19); fill-rule: nonzero; opacity: 1;" vector-effect="non-scaling-stroke"  transform=" translate(-43.3, -43.3)" d="M 0 18.3718 C 0 8.22533 8.22534 0 18.3718 0 L 68.23371 0 L 68.23371 0 C 78.38018 0 86.60551000000001 8.22534 86.60551000000001 18.3718 L 86.60551000000001 68.23371 L 86.60551000000001 68.23371 C 86.60551000000001 78.38018 78.38017 86.60551000000001 68.23371 86.60551000000001 L 18.3718 86.60551000000001 L 18.3718 86.60551000000001 C 8.22533 86.60551000000001 0 78.38017 0 68.23371 z" stroke-linecap="round" />
</g>
</svg>