<?xml version="1.0" encoding="UTF-8" standalone="no" ?>
<!DOCTYPE svg PUBLIC "-//W3C//DTD SVG 1.1//EN" "http://www.w3.org/Graphics/SVG/1.1/DTD/svg11.dtd">
<svg xmlns="http://www.w3.org/2000/svg" xmlns:xlink="http://www.w3.org/1999/xlink" version="1.1" width="640" height="640" viewBox="0 0 640 640" xml:space="preserve">
<desc>Created with Fabric.js 4.6.0</desc>
<defs>
</defs>
<g transform="matrix(0.2 0 0 0.2 320 320)" id="6iAD57KHsTSd0JV-RTeVz"  >
<g style="" vector-effect="non-scaling-stroke"   >
		<g transform="matrix(40 0 0 40 0 -240)" id="U0k2rkXqfLNtXI-nFcyzr"  >
<path style="stroke: rgb(0,0,0); stroke-width: 2; stroke-dasharray: none; stroke-linecap: round; stroke-dashoffset: 0; stroke-linejoin: round; stroke-miterlimit: 4; fill: none; fill-rule: nonzero; opacity: 1;" vector-effect="non-scaling-stroke"  transform=" translate(-12, -6)" d="M 4 3 L 4 9 M 3 4 L 3 8 M 20 3 L 20 9 M 21 4 L 21 8 M 4 6 L 20 6" stroke-linecap="round" />
</g>
		<g transform="matrix(40 0 0 40 0 20)" id="jwPo30cLuitsTeAy__VIR"  >
<path style="stroke: rgb(0,0,0); stroke-width: 2; stroke-dasharray: none; stroke-linecap: round; stroke-dashoffset: 0; stroke-linejoin: round; stroke-miterlimit: 4; fill: none; fill-rule: nonzero; opacity: 1;" vector-effect="non-scaling-stroke"  transform=" translate(-12, -12.5)" d="M 16 4 L 16 21 M 8 21 L 8 4 M 18 15 L 6 15 M 19 21 L 5 21" stroke-linecap="round" />
</g>
</g>
</g>
<g transform="matrix(1.76 0 0 1.76 320 320)" id="CRJgJMWHtMDhgx239zute"  >
<path style="stroke: rgb(219,10,19); stroke-width: 3; stroke-dasharray: none; stroke-linecap: butt; stroke-dashoffset: 0; stroke-linejoin: miter; stroke-miterlimit: 4; fill: none; fill-rule: nonzero; opacity: 1;" vector-effect="non-scaling-stroke"  transform=" translate(0, 0)" d="M 0 -75.78041 C 41.83079 -75.78041 75.78041 -41.83079 75.78041 0 C 75.78041 41.83079 41.83079 75.78041 0 75.78041 C -41.83079 75.78041 -75.78041 41.83079 -75.78041 0 C -75.78041 -41.83079 -41.83079 -75.78041 0 -75.78041 z" stroke-linecap="round" />
</g>
</svg>