<?xml version="1.0" encoding="UTF-8" standalone="no" ?>
<!DOCTYPE svg PUBLIC "-//W3C//DTD SVG 1.1//EN" "http://www.w3.org/Graphics/SVG/1.1/DTD/svg11.dtd">
<svg xmlns="http://www.w3.org/2000/svg" xmlns:xlink="http://www.w3.org/1999/xlink" version="1.1" width="640" height="640" viewBox="0 0 640 640" xml:space="preserve">
<desc>Created with Fabric.js 4.6.0</desc>
<defs>
</defs>
<g transform="matrix(1.76 0 0 1.76 320 320)" id="CRJgJMWHtMDhgx239zute"  >
<path style="stroke: rgb(219,10,19); stroke-width: 3; stroke-dasharray: none; stroke-linecap: butt; stroke-dashoffset: 0; stroke-linejoin: miter; stroke-miterlimit: 4; fill: none; fill-rule: nonzero; opacity: 1;" vector-effect="non-scaling-stroke"  transform=" translate(0, 0)" d="M 0 -75.78041 C 41.83079 -75.78041 75.78041 -41.83079 75.78041 0 C 75.78041 41.83079 41.83079 75.78041 0 75.78041 C -41.83079 75.78041 -75.78041 41.83079 -75.78041 0 C -75.78041 -41.83079 -41.83079 -75.78041 0 -75.78041 z" stroke-linecap="round" />
</g>
<g transform="matrix(0.22 0 0 0.39 320 320)" id="SpwGRjG0FV3Rbn1DRQN4_"  >
<g style="" vector-effect="non-scaling-stroke"   >
		<g transform="matrix(39.99 0 0 39.99 279.99 -119.99)" id="U7tIHE6XZQCyaJ58_qzFw"  >
<path style="stroke: none; stroke-width: 1; stroke-dasharray: none; stroke-linecap: butt; stroke-dashoffset: 0; stroke-linejoin: miter; stroke-miterlimit: 4; fill: rgb(44,169,188); fill-rule: nonzero; opacity: 1;" vector-effect="non-scaling-stroke"  transform=" translate(-2, -2)" d="M 0 2 C 0 0.89543 0.89543 0 2 0 C 3.10457 0 4 0.89543 4 2 C 4 3.10457 3.10457 4 2 4 C 0.89543 4 0 3.10457 0 2 z" stroke-linecap="round" />
</g>
		<g transform="matrix(39.99 0 0 39.99 -62.59 79.98)" id="ebcJ8MFCVUDy2NPHAsdUa"  >
<path style="stroke: rgb(0,0,0); stroke-width: 2; stroke-dasharray: none; stroke-linecap: round; stroke-dashoffset: 0; stroke-linejoin: round; stroke-miterlimit: 4; fill: none; fill-rule: nonzero; opacity: 1;" vector-effect="non-scaling-stroke"  transform=" translate(-10.43, -14)" d="M 3 17 L 3 15.72 C 2.976608532411522 15.271847641854249 3.2546290617794114 14.862993922195589 3.6799999999999997 14.72 L 9 13 L 17.869999999999997 11" stroke-linecap="round" />
</g>
		<g transform="matrix(39.99 0 0 39.99 259.99 99.99)" id="Corer_BnH0vQW0BeAlnEW"  >
<path style="stroke: rgb(0,0,0); stroke-width: 2; stroke-dasharray: none; stroke-linecap: round; stroke-dashoffset: 0; stroke-linejoin: round; stroke-miterlimit: 4; fill: none; fill-rule: nonzero; opacity: 1;" vector-effect="non-scaling-stroke"  transform=" translate(-18.5, -14.5)" d="M 20 17 L 18.82 17 C 18.33723923625035 17.009735705397528 17.916473625801117 16.67312321703814 17.82 16.2 L 17 12" stroke-linecap="round" />
</g>
		<g transform="matrix(39.99 0 0 39.99 40.02 4)" id="ljDsUQpOBe91WSSrlKyfu"  >
<line style="stroke: rgb(0,0,0); stroke-width: 2.5; stroke-dasharray: none; stroke-linecap: round; stroke-dashoffset: 0; stroke-linejoin: round; stroke-miterlimit: 4; fill: none; fill-rule: nonzero; opacity: 1;" vector-effect="non-scaling-stroke"  x1="-4" y1="0.9" x2="4" y2="-0.9" />
</g>
		<g transform="matrix(39.99 0 0 39.99 279.99 -119.99)" id="05S1j9mKnj7FLEm5_YZdN"  >
<path style="stroke: rgb(0,0,0); stroke-width: 2; stroke-dasharray: none; stroke-linecap: butt; stroke-dashoffset: 0; stroke-linejoin: miter; stroke-miterlimit: 4; fill: none; fill-rule: nonzero; opacity: 1;" vector-effect="non-scaling-stroke"  transform=" translate(-2, -2)" d="M 0 2 C 0 0.89543 0.89543 0 2 0 C 3.10457 0 4 0.89543 4 2 C 4 3.10457 3.10457 4 2 4 C 0.89543 4 0 3.10457 0 2 z" stroke-linecap="round" />
</g>
</g>
</g>
</svg>