<?xml version="1.0" encoding="UTF-8" standalone="no" ?>
<!DOCTYPE svg PUBLIC "-//W3C//DTD SVG 1.1//EN" "http://www.w3.org/Graphics/SVG/1.1/DTD/svg11.dtd">
<svg xmlns="http://www.w3.org/2000/svg" xmlns:xlink="http://www.w3.org/1999/xlink" version="1.1" width="640" height="640" viewBox="0 0 640 640" xml:space="preserve">
<desc>Created with Fabric.js 4.6.0</desc>
<defs>
</defs>
<g transform="matrix(1.76 0 0 1.76 320 320)" id="CRJgJMWHtMDhgx239zute"  >
<path style="stroke: rgb(219,10,19); stroke-width: 3; stroke-dasharray: none; stroke-linecap: butt; stroke-dashoffset: 0; stroke-linejoin: miter; stroke-miterlimit: 4; fill: none; fill-rule: nonzero; opacity: 1;" vector-effect="non-scaling-stroke"  transform=" translate(0, 0)" d="M 0 -75.78041 C 41.83079 -75.78041 75.78041 -41.83079 75.78041 0 C 75.78041 41.83079 41.83079 75.78041 0 75.78041 C -41.83079 75.78041 -75.78041 41.83079 -75.78041 0 C -75.78041 -41.83079 -41.83079 -75.78041 0 -75.78041 z" stroke-linecap="round" />
</g>
<g transform="matrix(0.2 0 0 0.2 320 320)" id="eKpX2S7QK0UgzZvo0_m7F"  >
<g style="" vector-effect="non-scaling-stroke"   >
		<g transform="matrix(12.52 0 0 12.52 0 15.19)" id="6ssQsJPH7y8Ud5l9Tmv8J"  >
<path style="stroke: none; stroke-width: 1; stroke-dasharray: none; stroke-linecap: butt; stroke-dashoffset: 0; stroke-linejoin: miter; stroke-miterlimit: 4; fill: rgb(1,0,2); fill-rule: nonzero; opacity: 1;" vector-effect="non-scaling-stroke"  transform=" translate(-31.94, -33.15)" d="M 63.823 31.599 C 63.316 28.458 62.215 25.29 60.571 22.558 C 59.93 24.805 58.189 26.592 55.965999999999994 27.287 C 56.29299999999999 27.988 56.57699999999999 28.71 56.824999999999996 29.445 C 55.73 29.47 54.626999999999995 29.466 53.535999999999994 29.424 C 51.8 27.023 48.16799999999999 25.72 45.205 28.025 C 44.467 26.432 43.913 24.801 43.616 23.089 C 44.932 23.168 46.247 23.269 47.553 23.448 C 47.172999999999995 22.594 46.961999999999996 21.651 46.961999999999996 20.657 C 46.961999999999996 19.391 47.306 18.206 47.903 17.183 C 45.356 16.881 42.781 16.792 40.226 16.583 C 38.475 16.439 37.132999999999996 18.124 37.083 19.726999999999997 C 36.931999999999995 24.160999999999998 38.214999999999996 28.291999999999994 40.222 32.156 C 38.209 33.774 36.336 35.229 34.276 36.900999999999996 C 31.653000000000002 34.278999999999996 28.617000000000004 32.019999999999996 25.588 29.973999999999997 C 24.009 28.907999999999998 22.164 29.537999999999997 20.823 30.589999999999996 C 16.713 33.81399999999999 12.601 37.041999999999994 8.491 40.269 C 7.867999999999999 40.759 7.478999999999999 41.306 7.282 41.869 C 6.122 41.869 4.963 41.869 3.804 41.869 C -1.2680000000000002 41.869 -1.2680000000000002 49.73 3.804 49.73 C 13.761000000000001 49.73 23.718 49.73 33.675 49.73 C 36.050999999999995 49.73 37.491 48.531 38.281 47.849999999999994 C 43.763 43.105999999999995 47.275999999999996 40.721999999999994 52.76 35.977 C 52.888999999999996 35.867 53.001999999999995 35.754 53.111999999999995 35.641999999999996 C 55.675 35.75899999999999 58.25599999999999 35.69499999999999 60.79599999999999 35.57599999999999 C 62.99 35.48 64.153 33.661 63.823 31.599 z M 19.086 41.869 C 20.633 40.653999999999996 22.182 39.441 23.726999999999997 38.229 C 25.284999999999997 39.335 26.833 40.538 28.226999999999997 41.869 C 25.181 41.869 22.133 41.869 19.086 41.869 z" stroke-linecap="round" />
</g>
		<g transform="matrix(12.52 0 0 12.52 277.15 -146.2)" id="eRstn2zZMmD3iSrzs2B8L"  >
<path style="stroke: none; stroke-width: 1; stroke-dasharray: none; stroke-linecap: butt; stroke-dashoffset: 0; stroke-linejoin: miter; stroke-miterlimit: 4; fill: rgb(1,0,2); fill-rule: nonzero; opacity: 1;" vector-effect="non-scaling-stroke"  transform=" translate(-54.07, -20.27)" d="M 54.068 26.382 C 57.442 26.382 60.184 23.637 60.184 20.264000000000003 C 60.184 16.892000000000003 57.439 14.148000000000003 54.068 14.148000000000003 C 50.696999999999996 14.148000000000003 47.952999999999996 16.893000000000004 47.952999999999996 20.264000000000003 C 47.952 23.637 50.697 26.382 54.068 26.382 z" stroke-linecap="round" />
</g>
</g>
</g>
</svg>