<?xml version="1.0" encoding="utf-8"?><!-- Uploaded to: SVG Repo, www.svgrepo.com, Generator: SVG Repo Mixer Tools -->
<svg fill="#000000" width="800px" height="800px" viewBox="0 0 24 24" id="push-up" data-name="Flat Color" xmlns="http://www.w3.org/2000/svg" class="icon flat-color"><path id="primary" d="M20,16H18.82L18,12h.07a1,1,0,1,0-.44-2L8.78,12l-.1,0L3.37,13.82A2,2,0,0,0,2,15.72V17a1,1,0,0,0,2,0V15.72L9.27,14l6.8-1.53.79,4a2,2,0,0,0,2,1.61H20a1,1,0,0,0,0-2Z" style="fill: rgb(0, 0, 0);"></path><path id="secondary" d="M9,14.5a1.5,1.5,0,0,1-.33-3l8-1.81a1.5,1.5,0,1,1,.66,2.93l-8,1.8A1.24,1.24,0,0,1,9,14.5Z" style="fill: rgb(44, 169, 188);"></path><circle id="primary-2" data-name="primary" cx="19" cy="9" r="3" style="fill: rgb(0, 0, 0);"></circle></svg>