<?xml version="1.0" encoding="UTF-8" standalone="no" ?>
<!DOCTYPE svg PUBLIC "-//W3C//DTD SVG 1.1//EN" "http://www.w3.org/Graphics/SVG/1.1/DTD/svg11.dtd">
<svg xmlns="http://www.w3.org/2000/svg" xmlns:xlink="http://www.w3.org/1999/xlink" version="1.1" width="640" height="640" viewBox="0 0 640 640" xml:space="preserve">
<desc>Created with Fabric.js 4.6.0</desc>
<defs>
</defs>
<g transform="matrix(1.76 0 0 1.76 320 320)" id="CRJgJMWHtMDhgx239zute"  >
<path style="stroke: rgb(219,10,19); stroke-width: 3; stroke-dasharray: none; stroke-linecap: butt; stroke-dashoffset: 0; stroke-linejoin: miter; stroke-miterlimit: 4; fill: none; fill-rule: nonzero; opacity: 1;" vector-effect="non-scaling-stroke"  transform=" translate(0, 0)" d="M 0 -75.78041 C 41.83079 -75.78041 75.78041 -41.83079 75.78041 0 C 75.78041 41.83079 41.83079 75.78041 0 75.78041 C -41.83079 75.78041 -75.78041 41.83079 -75.78041 0 C -75.78041 -41.83079 -41.83079 -75.78041 0 -75.78041 z" stroke-linecap="round" />
</g>
<g transform="matrix(0.24 0 0 0.39 320 320)" id="pi2kYl5uiZqUNMcJsBRZe"  >
<g style="" vector-effect="non-scaling-stroke"   >
		<g transform="matrix(33.33 0 0 33.33 -16.67 66.26)" id="MwKgJV2h5tVW0T295Ug3v"  >
<path style="stroke: none; stroke-width: 1; stroke-dasharray: none; stroke-linecap: butt; stroke-dashoffset: 0; stroke-linejoin: miter; stroke-miterlimit: 4; fill: rgb(0,0,0); fill-rule: nonzero; opacity: 1;" vector-effect="non-scaling-stroke"  transform=" translate(-11.5, -14.03)" d="M 20 16 L 18.82 16 L 18 12 L 18.07 12 C 18.622284749830794 11.878497355037226 18.971502644962776 11.332284749830793 18.85 10.78 C 18.728497355037224 10.227715250169206 18.182284749830792 9.878497355037226 17.63 10 L 8.78 12 L 8.68 12 L 3.37 13.82 C 2.551424944180794 14.091681625372866 1.9992167002225063 14.857517876117935 2 15.719999999999999 L 2 17 C 2 17.552284749830793 2.4477152501692068 18 3 18 C 3.5522847498307932 18 4 17.552284749830793 4 17 L 4 15.72 L 9.27 14 L 16.07 12.47 L 16.86 16.47 C 17.048736965634138 17.420231546987022 17.891383938879457 18.098562360449503 18.86 18.08 L 20 18.08 C 20.552284749830793 18.08 21 17.63228474983079 21 17.08 C 21 16.527715250169205 20.552284749830793 16.08 20 16.08 Z" stroke-linecap="round" />
</g>
		<g transform="matrix(33.33 0 0 33.33 30.46 1.36)" id="j22hN-ge74yRFKMsVimWV"  >
<path style="stroke: none; stroke-width: 1; stroke-dasharray: none; stroke-linecap: butt; stroke-dashoffset: 0; stroke-linejoin: miter; stroke-miterlimit: 4; fill: rgb(44,169,188); fill-rule: nonzero; opacity: 1;" vector-effect="non-scaling-stroke"  transform=" translate(-12.91, -12.08)" d="M 9 14.5 C 8.17157287525381 14.59112698372208 7.426126983722082 13.99342712474619 7.335 13.165000000000001 C 7.243873016277918 12.336572875253811 7.841572875253809 11.59112698372208 8.67 11.5 L 16.67 9.69 C 17.479097158502114 9.507746032555838 18.28274603255584 10.015902841497887 18.465000000000003 10.825 C 18.647253967444165 11.634097158502112 18.139097158502114 12.437746032555838 17.330000000000002 12.62 L 9.330000000000002 14.42 C 9.224188866496569 14.461672823089497 9.113148015986361 14.488591817152578 9 14.5 Z" stroke-linecap="round" />
</g>
		<g transform="matrix(33.33 0 0 33.33 233.33 -101.34)" id="At6jkAX-HwEMlfERtTV3o"  >
<path style="stroke: none; stroke-width: 1; stroke-dasharray: none; stroke-linecap: butt; stroke-dashoffset: 0; stroke-linejoin: miter; stroke-miterlimit: 4; fill: rgb(0,0,0); fill-rule: nonzero; opacity: 1;" vector-effect="non-scaling-stroke"  transform=" translate(-3, -3)" d="M 0 3 C 0 1.34315 1.34315 0 3 0 C 4.65685 0 6 1.34315 6 3 C 6 4.65685 4.65685 6 3 6 C 1.34315 6 0 4.65685 0 3 z" stroke-linecap="round" />
</g>
</g>
</g>
</svg>