<?xml version="1.0" encoding="UTF-8" standalone="no" ?>
<!DOCTYPE svg PUBLIC "-//W3C//DTD SVG 1.1//EN" "http://www.w3.org/Graphics/SVG/1.1/DTD/svg11.dtd">
<svg xmlns="http://www.w3.org/2000/svg" xmlns:xlink="http://www.w3.org/1999/xlink" version="1.1" width="640" height="640" viewBox="0 0 640 640" xml:space="preserve">
<desc>Created with Fabric.js 4.6.0</desc>
<defs>
</defs>
<g transform="matrix(1.76 0 0 1.76 320 320)" id="CRJgJMWHtMDhgx239zute"  >
<path style="stroke: rgb(219,10,19); stroke-width: 3; stroke-dasharray: none; stroke-linecap: butt; stroke-dashoffset: 0; stroke-linejoin: miter; stroke-miterlimit: 4; fill: none; fill-rule: nonzero; opacity: 1;" vector-effect="non-scaling-stroke"  transform=" translate(0, 0)" d="M 0 -75.78041 C 41.83079 -75.78041 75.78041 -41.83079 75.78041 0 C 75.78041 41.83079 41.83079 75.78041 0 75.78041 C -41.83079 75.78041 -75.78041 41.83079 -75.78041 0 C -75.78041 -41.83079 -41.83079 -75.78041 0 -75.78041 z" stroke-linecap="round" />
</g>
<g transform="matrix(0.31 0 0 0.69 320 320)" id="ScB1NcFY2wCMxk1qh9q-B"  >
<g style="" vector-effect="non-scaling-stroke"   >
		<g transform="matrix(1 0 0 1 -145.61 0)" id="N63_ZG88bC1Cu2teQkGLk"  >
<path style="stroke: none; stroke-width: 1; stroke-dasharray: none; stroke-linecap: butt; stroke-dashoffset: 0; stroke-linejoin: miter; stroke-miterlimit: 4; fill: rgb(0,0,0); fill-rule: nonzero; opacity: 1;" vector-effect="non-scaling-stroke"  transform=" translate(-110.39, -256)" d="M 141.698 141.549 L 79.077 141.549 C 70.589 141.549 63.707 148.431 63.707 156.911 L 63.707 355.09000000000003 C 63.707 363.569 70.589 370.45200000000006 79.077 370.45200000000006 L 141.699 370.45200000000006 C 150.18800000000002 370.45200000000006 157.07000000000002 363.5690000000001 157.07000000000002 355.09000000000003 L 157.07000000000002 156.911 C 157.07 148.431 150.187 141.549 141.698 141.549 z" stroke-linecap="round" />
</g>
		<g transform="matrix(1 0 0 1 -233.41 0)" id="dIlIzFS2JSS_DiG24Auoq"  >
<path style="stroke: none; stroke-width: 1; stroke-dasharray: none; stroke-linecap: butt; stroke-dashoffset: 0; stroke-linejoin: miter; stroke-miterlimit: 4; fill: rgb(0,0,0); fill-rule: nonzero; opacity: 1;" vector-effect="non-scaling-stroke"  transform=" translate(-22.59, -256)" d="M 32.374 189.734 L 12.803 189.734 C 5.736 189.734 0 195.47 0 202.537 L 0 309.462 C 0 316.53 5.736 322.265 12.803 322.265 L 32.374 322.265 C 39.441 322.265 45.17700000000001 316.529 45.17700000000001 309.462 L 45.17700000000001 202.537 C 45.177 195.47 39.441 189.734 32.374 189.734 z" stroke-linecap="round" />
</g>
		<g transform="matrix(1 0 0 1 0 0)" id="2gVKBJRrwn1Zf20tnWmkS"  >
<path style="stroke: none; stroke-width: 1; stroke-dasharray: none; stroke-linecap: butt; stroke-dashoffset: 0; stroke-linejoin: miter; stroke-miterlimit: 4; fill: rgb(0,0,0); fill-rule: nonzero; opacity: 1;" vector-effect="non-scaling-stroke"  transform=" translate(-78.31, -27.11)" d="M 0 54.212 L 0 0 L 156.62 0 L 156.62 54.212 z" stroke-linecap="round" />
</g>
		<g transform="matrix(1 0 0 1 145.61 0)" id="D1rFk6Snxe3gmspRc3cZB"  >
<path style="stroke: none; stroke-width: 1; stroke-dasharray: none; stroke-linecap: butt; stroke-dashoffset: 0; stroke-linejoin: miter; stroke-miterlimit: 4; fill: rgb(0,0,0); fill-rule: nonzero; opacity: 1;" vector-effect="non-scaling-stroke"  transform=" translate(-401.61, -256)" d="M 432.922 141.549 L 370.30100000000004 141.549 C 361.81300000000005 141.549 354.93000000000006 148.431 354.93000000000006 156.911 L 354.93000000000006 355.09000000000003 C 354.93000000000006 363.569 361.81200000000007 370.45200000000006 370.30100000000004 370.45200000000006 L 432.922 370.45200000000006 C 441.41 370.45200000000006 448.293 363.5690000000001 448.293 355.09000000000003 L 448.293 156.911 C 448.293 148.431 441.411 141.549 432.922 141.549 z" stroke-linecap="round" />
</g>
		<g transform="matrix(1 0 0 1 233.41 0)" id="1DYUnuP6yyT95-gAVB8CF"  >
<path style="stroke: none; stroke-width: 1; stroke-dasharray: none; stroke-linecap: butt; stroke-dashoffset: 0; stroke-linejoin: miter; stroke-miterlimit: 4; fill: rgb(0,0,0); fill-rule: nonzero; opacity: 1;" vector-effect="non-scaling-stroke"  transform=" translate(-489.41, -256)" d="M 499.197 189.734 L 479.627 189.734 C 472.559 189.734 466.824 195.47 466.824 202.537 L 466.824 309.462 C 466.824 316.53 472.56 322.265 479.627 322.265 L 499.197 322.265 C 506.265 322.265 512 316.529 512 309.462 L 512 202.537 C 512 195.47 506.264 189.734 499.197 189.734 z" stroke-linecap="round" />
</g>
</g>
</g>
</svg>