<?xml version="1.0" encoding="UTF-8" standalone="no" ?>
<!DOCTYPE svg PUBLIC "-//W3C//DTD SVG 1.1//EN" "http://www.w3.org/Graphics/SVG/1.1/DTD/svg11.dtd">
<svg xmlns="http://www.w3.org/2000/svg" xmlns:xlink="http://www.w3.org/1999/xlink" version="1.1" width="640" height="640" viewBox="0 0 640 640" xml:space="preserve">
<desc>Created with Fabric.js 4.6.0</desc>
<defs>
</defs>
<g transform="matrix(0.16 0.16 -0.16 0.16 320 320)" id="BXKjxRXgOQDGwZeORAYVU"  >
<path style="stroke: rgb(219,10,19); stroke-width: 5; stroke-dasharray: none; stroke-linecap: butt; stroke-dashoffset: 0; stroke-linejoin: miter; stroke-miterlimit: 4; fill: rgb(219,10,19); fill-rule: nonzero; opacity: 1;" vector-effect="non-scaling-stroke"  transform=" translate(0, 0)" d="M 345.5 -104.5 L 303.5 -146.5 L 348.5 -191.5 L 191.5 -348.5 L 146.5 -303.5 L 103.5 -346.5 L 133.5 -377.5 C 148.83333 -392.83333 167.83333 -400.33333 190.5 -400 C 213.16667 -399.66667 232.16667 -391.83333 247.5 -376.5 L 376.5 -247.5 C 391.83333 -232.16667 399.5 -213.33333 399.5 -191 C 399.5 -168.66667 391.83333 -149.83333 376.5 -134.5 z M -134.5 376.5 C -149.83333 391.83333 -168.66667 399.5 -191 399.5 C -213.33333 399.5 -232.16667 391.83333 -247.5 376.5 L -390.5 233.5 C -401.83333 221.91467 -407.5 207.685 -407.5 190.811 C -407.5 173.937 -401.83333 159.83333000000002 -390.5 148.5 L -346.5 104.5 L -303.5 146.5 L -348.5 191.5 L -191.5 348.5 L -146.5 303.5 L -104.5 346.5 z M 262.5 68.5 L 347.5 -16.5 L 16.5 -347.5 L -68.5 -262.5 z M -17.5 348.5 L 68.5 262.5 L -262.5 -68.5 L -348.5 17.5 z M -8.5 100.5 L 100.5 -8.5 L 8.5 -100.5 L -100.5 8.5 z M 24.5 390.5 C 13.21067 401.83333 -0.7783300000000004 407.5 -17.467 407.5 C -34.15567 407.5 -48.166669999999996 401.83333 -59.5 390.5 L -390.5 59.5 C -401.83333 48.21067 -407.5 34.22167 -407.5 17.533 C -407.5 0.8443300000000029 -401.83333 -13.16667 -390.5 -24.5 L -305.5 -110.5 C -293.91467 -121.83333 -279.685 -127.5 -262.811 -127.5 C -245.93699999999998 -127.5 -231.83333 -121.83333 -220.49999999999997 -110.5 L -143.49999999999997 -33.5 L -33.49999999999997 -143.5 L -110.49999999999997 -220.5 C -121.83332999999998 -231.78933 -127.49999999999997 -245.77833 -127.49999999999997 -262.467 C -127.49999999999997 -279.15567 -121.83332999999998 -293.16667 -110.49999999999997 -304.5 L -25.49999999999997 -390.5 C -13.91466999999997 -401.83333 0.3150000000000297 -407.5 17.18900000000003 -407.5 C 34.06300000000003 -407.5 48.166670000000025 -401.83333 59.50000000000003 -390.5 L 390.5 -59.5 C 401.83333 -47.91467 407.5 -33.685 407.5 -16.811 C 407.5 0.06299999999999883 401.83333 14.16667 390.5 25.5 L 304.5 110.5 C 293.21067 121.83333 279.22167 127.5 262.533 127.5 C 245.84433 127.5 231.83333000000002 121.83333 220.5 110.5 L 143.5 33.5 L 33.5 143.5 L 110.5 220.5 C 121.83333 232.08533 127.5 246.315 127.5 263.189 C 127.5 280.06300000000005 121.83333 294.16667 110.5 305.5 z" stroke-linecap="round" />
</g>
<g transform="matrix(0.57 0 0 1.63 274.91 316.59)" id="Tg0q21drbLngkgL_s9961"  >
<path style="stroke: rgb(42,137,150); stroke-width: 0; stroke-dasharray: none; stroke-linecap: butt; stroke-dashoffset: 0; stroke-linejoin: miter; stroke-miterlimit: 4; fill: rgb(219,10,19); fill-rule: nonzero; opacity: 1;" vector-effect="non-scaling-stroke"  transform=" translate(0, 0)" d="M -34.44564 -34.44564 L 34.44564 -34.44564 L 34.44564 34.44564 L -34.44564 34.44564 z" stroke-linecap="round" />
</g>
<g transform="matrix(0.56 0 0 1.51 365.87 320.69)" id="kpwCA70y_tH0R6TA9D1RV"  >
<path style="stroke: rgb(200,6,160); stroke-width: 0; stroke-dasharray: none; stroke-linecap: butt; stroke-dashoffset: 0; stroke-linejoin: miter; stroke-miterlimit: 4; fill: rgb(219,10,19); fill-rule: nonzero; opacity: 1;" vector-effect="non-scaling-stroke"  transform=" translate(0, 0)" d="M -34.44564 -34.44564 L 34.44564 -34.44564 L 34.44564 34.44564 L -34.44564 34.44564 z" stroke-linecap="round" />
</g>
<g transform="matrix(0.24 0 0 0.78 401.24 321.6)" id="iJnQ8crRqIAztgOUIq5-d"  >
<path style="stroke: rgb(200,6,160); stroke-width: 0; stroke-dasharray: none; stroke-linecap: butt; stroke-dashoffset: 0; stroke-linejoin: miter; stroke-miterlimit: 4; fill: rgb(219,10,19); fill-rule: nonzero; opacity: 1;" vector-effect="non-scaling-stroke"  transform=" translate(0, 0)" d="M -34.44564 -34.44564 L 34.44564 -34.44564 L 34.44564 34.44564 L -34.44564 34.44564 z" stroke-linecap="round" />
</g>
<g transform="matrix(0.24 0 0 0.78 241.08 320)" id="J6kj7CVxlMZYVppZbc1KE"  >
<path style="stroke: rgb(200,6,160); stroke-width: 0; stroke-dasharray: none; stroke-linecap: butt; stroke-dashoffset: 0; stroke-linejoin: miter; stroke-miterlimit: 4; fill: rgb(219,10,19); fill-rule: nonzero; opacity: 1;" vector-effect="non-scaling-stroke"  transform=" translate(0, 0)" d="M -34.44564 -34.44564 L 34.44564 -34.44564 L 34.44564 34.44564 L -34.44564 34.44564 z" stroke-linecap="round" />
</g>
<g transform="matrix(0.61 0 0 -0.51 321.07 320.69)" id="3ZSjcXo6i2IImNWgTDQjM"  >
<path style="stroke: rgb(200,6,160); stroke-width: 0; stroke-dasharray: none; stroke-linecap: butt; stroke-dashoffset: 0; stroke-linejoin: miter; stroke-miterlimit: 4; fill: rgb(219,10,19); fill-rule: nonzero; opacity: 1;" vector-effect="non-scaling-stroke"  transform=" translate(0, 0)" d="M -34.44564 -34.44564 L 34.44564 -34.44564 L 34.44564 34.44564 L -34.44564 34.44564 z" stroke-linecap="round" />
</g>
</svg>